<?xml version="1.0" encoding="UTF-8"?>
<!DOCTYPE svg PUBLIC "-//W3C//DTD SVG 1.1//EN" "http://www.w3.org/Graphics/SVG/1.1/DTD/svg11.dtd">
<!-- Creator: CorelDRAW -->
<svg xmlns="http://www.w3.org/2000/svg" xml:space="preserve" width="512px" height="512px" version="1.1" style="shape-rendering:geometricPrecision; text-rendering:geometricPrecision; image-rendering:optimizeQuality; fill-rule:evenodd; clip-rule:evenodd"
viewBox="0 0 512 512"
 xmlns:xlink="http://www.w3.org/1999/xlink"
 xmlns:xodm="http://www.corel.com/coreldraw/odm/2003">
 <defs>
  <style type="text/css">
   <![CDATA[
    .fil0 {fill:none}
    .fil1 {fill:white}
   ]]>
  </style>
 </defs>
 <g id="Layer_x0020_1">
  <metadata id="CorelCorpID_0Corel-Layer"/>
  <rect class="fil0" width="512" height="512"/>
  <g id="_1610797341392">
   <path class="fil1" d="M257.15 480c-62.56,0 -117.25,-20.05 -161.33,-64.81 -42.83,-43.5 -62.44,-96.84 -63.75,-157.09l-0.07 -226.1 80.71 91.25 0 134.85c0,39.49 12.01,74.47 40.72,102.05 28.71,27.57 64.18,39.14 103.72,39.14l69.54 0c23.81,22.63 44.33,37.37 92.94,34.5 4.49,-45.93 0.15,-111.36 -78.97,-143.16 54.91,58.33 28.37,73.68 67.65,130.28 -89.79,-18.85 -73.15,-96.63 -176.79,-170.68 167.55,-38.8 248.48,42.18 248.48,176.3l0 53.47c-78.11,0 -144.74,0 -222.85,0z"/>
   <path class="fil1" d="M32.02 32l222.83 0c61.46,0 117.48,17.31 162.27,60.23 44.54,42.69 62.88,97.29 62.88,158.42l0 45.83c-7.21,-12.07 -15.83,-23.4 -26.06,-33.71 -16.95,-17.1 -36.23,-29.44 -56.91,-37.95 -5.11,-26.96 -17.16,-51.18 -37.83,-71.69 -28.63,-28.4 -64.28,-40.42 -104.35,-40.42l-131.58 0 -91.25 -80.71z"/>
  </g>
 </g>
</svg>
