<?xml version="1.0" encoding="UTF-8"?>
<!DOCTYPE svg PUBLIC "-//W3C//DTD SVG 1.1//EN" "http://www.w3.org/Graphics/SVG/1.1/DTD/svg11.dtd">
<!-- Creator: CorelDRAW -->
<svg xmlns="http://www.w3.org/2000/svg" xml:space="preserve" width="512px" height="512px" version="1.1" style="shape-rendering:geometricPrecision; text-rendering:geometricPrecision; image-rendering:optimizeQuality; fill-rule:evenodd; clip-rule:evenodd"
viewBox="0 0 512 512"
 xmlns:xlink="http://www.w3.org/1999/xlink"
 xmlns:xodm="http://www.corel.com/coreldraw/odm/2003">
 <defs>
  <style type="text/css">
   <![CDATA[
    .fil0 {fill:url(#id0)}
    .fil1 {fill:url(#id1)}
   ]]>
  </style>
  <linearGradient id="id0" gradientUnits="userSpaceOnUse" x1="512" y1="512" x2="0" y2="0">
   <stop offset="0" style="stop-opacity:1; stop-color:#9457F6"/>
   <stop offset="1" style="stop-opacity:1; stop-color:#52F3E4"/>
  </linearGradient>
  <linearGradient id="id1" gradientUnits="userSpaceOnUse" xlink:href="#id0" x1="0" y1="0" x2="512" y2="302.26">
  </linearGradient>
 </defs>
 <g id="Layer_x0020_1">
  <metadata id="CorelCorpID_0Corel-Layer"/>
  <g id="_1610803010816">
   <path class="fil0" d="M257.31 512c-71.49,0 -133.99,-22.92 -184.37,-74.07 -48.95,-49.71 -71.37,-110.67 -72.86,-179.53l-0.08 -258.4 92.24 104.29 0 154.11c0,45.13 13.73,85.11 46.54,116.62 32.81,31.52 73.35,44.74 118.53,44.74l79.48 0c27.21,25.87 50.66,42.71 106.22,39.43 5.13,-52.49 0.17,-127.26 -90.26,-163.61 62.76,66.66 32.43,84.2 77.31,148.89 -102.61,-21.54 -83.6,-110.43 -202.04,-195.06 191.49,-44.35 283.98,48.2 283.98,201.49l0 61.1c-89.27,0 -165.41,0 -254.69,0z"/>
   <path class="fil1" d="M0.03 0l254.66 0c70.24,0 134.26,19.78 185.45,68.83 50.91,48.79 71.86,111.19 71.86,181.06l0 52.37c-8.24,-13.79 -18.09,-26.74 -29.78,-38.53 -19.38,-19.53 -41.4,-33.63 -65.05,-43.37 -5.84,-30.8 -19.61,-58.49 -43.23,-81.92 -32.72,-32.47 -73.46,-46.21 -119.25,-46.21l-150.38 0.01 -104.28 -92.24z"/>
  </g>
 </g>
</svg>
