<svg width="32" height="32" xmlns="http://www.w3.org/2000/svg">
  <style>
    :root { color: #000000; }
    @media (prefers-color-scheme: dark) {
      :root { color: #ffffff; }
    }
    .icon { fill: currentColor; }
  </style>
    <path class="fil1" d="M16.07 30c-3.91,0 -7.33,-1.25 -10.08,-4.05 -2.68,-2.72 -3.9,-6.05 -3.99,-9.82l0 -14.13 5.04 5.7 0 8.43c0,2.47 0.76,4.66 2.55,6.38 1.79,1.72 4.01,2.45 6.48,2.45l4.35 0c1.49,1.41 2.77,2.33 5.81,2.15 0.28,-2.87 0.01,-6.96 -4.94,-8.95 3.43,3.65 1.77,4.61 4.23,8.15 -5.61,-1.18 -4.57,-6.04 -11.05,-10.67 10.47,-2.43 15.53,2.64 15.53,11.02l0 3.34c-4.88,0 -9.05,0 -13.93,0z"/>
    <path class="fil1" d="M2 2l13.93 0c3.84,0 7.34,1.08 10.14,3.76 2.78,2.67 3.93,6.08 3.93,9.91l0 2.86c-0.45,-0.75 -0.99,-1.46 -1.63,-2.11 -1.06,-1.07 -2.26,-1.84 -3.56,-2.37 -0.32,-1.68 -1.07,-3.2 -2.36,-4.48 -1.79,-1.77 -4.02,-2.53 -6.52,-2.53l-8.23 0 -5.7 -5.04z"/>
</svg>