<svg width="32" height="32" xmlns="http://www.w3.org/2000/svg">
  <style>
    :root { color: #000000; }
    @media (prefers-color-scheme: dark) {
      :root { color: #ffffff; }
    }
    .icon { fill: currentColor; }
  </style>
    <path class="fil0" d="M16.07 30.4c-4.02,0 -7.53,-1.29 -10.37,-4.17 -2.75,-2.79 -4.01,-6.22 -4.1,-10.1l0 -14.53 5.19 5.87 0 8.66c0,2.54 0.77,4.79 2.62,6.57 1.84,1.77 4.12,2.51 6.66,2.51l4.47 0c1.53,1.46 2.85,2.4 5.98,2.22 0.29,-2.95 0.01,-7.16 -5.08,-9.2 3.53,3.75 1.83,4.73 4.35,8.37 -5.77,-1.21 -4.7,-6.21 -11.36,-10.97 10.77,-2.5 15.97,2.71 15.97,11.33l0 3.44c-5.02,0 -9.3,0 -14.33,0z"/>
    <path class="fil0" d="M1.6 1.6l14.33 0c3.95,0 7.55,1.11 10.43,3.87 2.86,2.75 4.04,6.26 4.04,10.19l0 2.94c-0.46,-0.77 -1.02,-1.5 -1.68,-2.16 -1.09,-1.1 -2.32,-1.9 -3.65,-2.44 -0.33,-1.74 -1.11,-3.29 -2.44,-4.61 -1.84,-1.83 -4.13,-2.6 -6.7,-2.6l-8.46 0 -5.87 -5.19z"/>
</svg>