<?xml version="1.0" encoding="UTF-8"?>
<!DOCTYPE svg PUBLIC "-//W3C//DTD SVG 1.1//EN" "http://www.w3.org/Graphics/SVG/1.1/DTD/svg11.dtd">
<!-- Creator: CorelDRAW -->
<svg xmlns="http://www.w3.org/2000/svg" xml:space="preserve" width="512px" height="512px" version="1.1" style="shape-rendering:geometricPrecision; text-rendering:geometricPrecision; image-rendering:optimizeQuality; fill-rule:evenodd; clip-rule:evenodd"
viewBox="0 0 512 512"
 xmlns:xlink="http://www.w3.org/1999/xlink"
 xmlns:xodm="http://www.corel.com/coreldraw/odm/2003">
 <defs>
  <style type="text/css">
   :root { color: #e6e6e6; }
    @media (prefers-color-scheme: dark) {
      :root { color: #1a1a1a; }
    }
    .fil0 { fill: currentColor; }
  </style>
 </defs>
 <g id="Layer_x0020_1">
  <metadata id="CorelCorpID_0Corel-Layer"/>
  <g id="_1610785224048">
   <path class="fil0" d="M257.07 464c-58.09,0 -108.87,-18.62 -149.81,-60.18 -39.77,-40.39 -57.98,-89.92 -59.19,-145.87l-0.07 -209.95 74.94 84.73 0 125.22c0,36.67 11.16,69.15 37.82,94.76 26.65,25.6 59.59,36.35 96.31,36.35l64.57 0c22.11,21.01 41.16,34.7 86.31,32.03 4.16,-42.64 0.13,-103.4 -73.34,-132.93 50.99,54.16 26.34,68.41 62.82,120.97 -83.37,-17.5 -67.93,-89.73 -164.16,-158.49 155.58,-36.03 230.73,39.17 230.73,163.71l0 49.65c-72.53,0 -134.4,0 -206.93,0z"/>
   <path class="fil0" d="M48.02 48l206.91 0c57.07,0 109.09,16.07 150.68,55.93 41.36,39.64 58.39,90.33 58.39,147.1l0 42.56c-6.69,-11.21 -14.7,-21.73 -24.2,-31.31 -15.74,-15.87 -33.64,-27.33 -52.85,-35.23 -4.74,-25.03 -15.93,-47.53 -35.12,-66.57 -26.59,-26.38 -59.69,-37.54 -96.9,-37.54l-122.18 0 -84.73 -74.94z"/>
  </g>
 </g>
</svg>

