<?xml version="1.0" encoding="UTF-8"?>
<!DOCTYPE svg PUBLIC "-//W3C//DTD SVG 1.1//EN" "http://www.w3.org/Graphics/SVG/1.1/DTD/svg11.dtd">
<!-- Creator: CorelDRAW -->
<svg xmlns="http://www.w3.org/2000/svg" xml:space="preserve" width="360px" height="508px" version="1.1" style="shape-rendering:geometricPrecision; text-rendering:geometricPrecision; image-rendering:optimizeQuality; fill-rule:evenodd; clip-rule:evenodd"
viewBox="0 0 360 508"
 xmlns:xlink="http://www.w3.org/1999/xlink"
 xmlns:xodm="http://www.corel.com/coreldraw/odm/2003">
 <defs>
  <style type="text/css">
   <![CDATA[
    .fil0 {fill:black;fill-rule:nonzero}
   ]]>
  </style>
 </defs>
 <g id="Layer_x0020_1">
  <metadata id="CorelCorpID_0Corel-Layer"/>
  <g id="_1610145834400">
   <image x="0" y="0.26" width="360" height="507.49" xlink:href="QRIS_Images\QRIS_ImgID1.png"/>
   <image x="16.75" y="124.55" width="326.51" height="326.51" xlink:href="QRIS_Images\QRIS_ImgID2.png"/>
   <path class="fil0" d="M123.58 93.55l-0.01 -0.01 2 1.91 -2.04 2.07 -2.18 -2.08 0.01 0.01c-1.31,0.82 -2.91,1.23 -4.78,1.23 -2.58,0 -4.69,-0.83 -6.34,-2.47 -1.65,-1.65 -2.48,-4.08 -2.48,-7.27 0,-3.09 0.8,-5.48 2.39,-7.19 1.6,-1.7 3.76,-2.55 6.49,-2.55 2.68,0 4.82,0.86 6.44,2.59 1.63,1.72 2.44,4.09 2.44,7.12 0,2.75 -0.65,4.97 -1.94,6.64zm-4.68 -4.46l1.89 1.8 0.02 0.01c0.55,-1.12 0.82,-2.43 0.82,-3.93 0,-1.9 -0.42,-3.47 -1.27,-4.69 -0.85,-1.23 -2.1,-1.84 -3.76,-1.84 -1.48,0 -2.68,0.57 -3.59,1.71 -0.91,1.14 -1.36,2.74 -1.36,4.84 0,1.89 0.42,3.44 1.26,4.64 0.85,1.2 2.08,1.8 3.69,1.8 0.74,0 1.45,-0.18 2.13,-0.54l-0.02 -0.01 -1.79 -1.72 1.98 -2.07z"/>
   <g>
    <path id="_1" class="fil0" d="M128.27 77.69l3.83 0 0 18.5 -3.83 0 0 -18.5zm1.87 -1.91l0 0 0 0zm-0.79 20.41l0 0 0 0zm-2.71 -18.99l0 0 0 0z"/>
   </g>
   <g>
    <path id="_2" class="fil0" d="M135.77 77.69l3.84 0 0 15.25 9.23 0 0 3.25 -13.07 0 0 -18.5zm2.29 -1.91l0 0 0 0zm4.35 20.41l0 0 0 0zm-8.62 -18.99l0 0 0 0z"/>
   </g>
   <g>
    <path id="_3" class="fil0" d="M151.49 77.69l3.83 0 0 15.25 9.24 0 0 3.25 -13.07 0 0 -18.5zm2.29 -1.91l0 0 0 0zm4.35 20.41l0 0 0 0zm-8.62 -18.99l0 0 0 0z"/>
   </g>
   <g>
    <path id="_4" class="fil0" d="M165.76 96.19l6.64 -18.5 4.43 0 6.64 18.5 -4.2 0 -1.19 -3.86 0 0 -6.94 0 0 0 -1.31 3.86 -4.07 0zm6.45 -7.1l0 0 4.72 0 0 0 -2.33 -7.2 0.02 0 -2.41 7.2zm2.56 -13.31l0 0 0 0zm4.84 20.41l0 0 0 0zm-14.39 -18.99l0 0 0 0z"/>
   </g>
   <g>
    <path id="_5" class="fil0" d="M184.81 90.45l3.73 0 0 0c0.11,2.02 1.43,3.03 3.96,3.03 2.44,0 3.66,-0.78 3.66,-2.35 0,-1 -0.86,-1.71 -2.58,-2.13l-4.53 -1.15c-1.38,-0.34 -2.41,-0.9 -3.06,-1.7 -0.65,-0.8 -0.98,-1.86 -0.98,-3.19 0,-1.69 0.61,-3.08 1.83,-4.15 1.21,-1.08 2.97,-1.61 5.26,-1.61 2.12,0 3.81,0.51 5.09,1.54 1.27,1.03 1.97,2.52 2.1,4.48l0 0 -3.73 0 0 0c-0.27,-1.89 -1.5,-2.83 -3.68,-2.83 -1,0 -1.79,0.19 -2.38,0.58 -0.59,0.38 -0.88,0.91 -0.88,1.58 0,0.49 0.15,0.9 0.45,1.23 0.31,0.32 0.8,0.57 1.48,0.74l4.49 1.1c1.85,0.45 3.12,1.07 3.8,1.88 0.7,0.8 1.05,1.86 1.05,3.16 0,1.79 -0.64,3.24 -1.91,4.36 -1.27,1.1 -3.11,1.66 -5.52,1.66 -2.25,0 -4.09,-0.53 -5.52,-1.59 -1.42,-1.06 -2.13,-2.61 -2.13,-4.64zm7.41 -14.67l0 0 0 0zm0.13 20.41l0 0 0 0z"/>
   </g>
   <g>
    <path id="_6" class="fil0" d="M202.1 87.01c0,-3.08 0.79,-5.49 2.37,-7.22 1.58,-1.73 3.75,-2.59 6.51,-2.59 2.61,0 4.74,0.82 6.39,2.46 1.66,1.64 2.48,4.06 2.48,7.28 0,3.02 -0.79,5.4 -2.38,7.13 -1.58,1.74 -3.75,2.61 -6.49,2.61 -2.64,0 -4.78,-0.85 -6.42,-2.53 -1.64,-1.69 -2.46,-4.07 -2.46,-7.14zm3.88 -0.13c0,1.9 0.42,3.47 1.26,4.7 0.85,1.24 2.09,1.85 3.74,1.85 1.45,0 2.64,-0.55 3.58,-1.65 0.94,-1.1 1.41,-2.73 1.41,-4.9 0,-1.89 -0.43,-3.44 -1.27,-4.64 -0.85,-1.2 -2.1,-1.8 -3.76,-1.8 -1.45,0 -2.64,0.56 -3.57,1.67 -0.92,1.12 -1.39,2.71 -1.39,4.77zm5.07 -11.1l0 0 0 0z"/>
   </g>
   <polygon id="_7" class="fil0" points="222.96,96.19 222.96,77.69 236.03,77.69 236.03,80.93 226.79,80.93 226.79,85.15 234.9,85.15 234.9,88.39 226.79,88.39 226.79,96.19 "/>
   <g>
    <path id="_8" class="fil0" d="M237.08 77.69l15.1 0 0 3.24 -5.63 0 0 15.26 -3.83 0 0 -15.26 -5.64 0 0 -3.24zm7.57 -1.91l0 0 0 0zm-0.31 20.41l0 0 0 0zm-7.64 -18.99l0 0 0 0z"/>
   </g>
   <polygon class="fil0" points="89.83,119.41 89.83,109.59 91.16,109.59 96.32,117.3 96.32,109.59 97.56,109.59 97.56,119.41 96.23,119.41 91.08,111.7 91.08,119.41 "/>
   <path id="_1_0" class="fil0" d="M99.72 119.41l0 -9.82 1.95 0 2.32 6.96c0.22,0.64 0.37,1.13 0.47,1.45 0.11,-0.36 0.29,-0.88 0.53,-1.58l2.36 -6.83 1.74 0 0 9.82 -1.25 0 0 -8.21 -2.87 8.21 -1.17 0 -2.83 -8.36 0 8.36 -1.25 0z"/>
   <polygon id="_2_1" class="fil0" points="111.39,119.41 111.39,109.59 112.7,109.59 112.7,119.41 "/>
   <path id="_3_2" class="fil0" d="M114.99 119.41l0 -9.82 3.38 0c0.76,0 1.35,0.05 1.75,0.14 0.56,0.13 1.04,0.37 1.44,0.71 0.52,0.44 0.9,0.99 1.16,1.67 0.26,0.69 0.39,1.47 0.39,2.34 0,0.75 -0.09,1.41 -0.26,1.98 -0.18,0.58 -0.4,1.06 -0.67,1.44 -0.28,0.37 -0.57,0.67 -0.9,0.88 -0.32,0.22 -0.71,0.39 -1.17,0.5 -0.46,0.11 -0.99,0.16 -1.58,0.16l-3.54 0zm1.3 -1.15l2.09 0c0.65,0 1.16,-0.06 1.53,-0.18 0.36,-0.12 0.66,-0.29 0.88,-0.51 0.3,-0.31 0.54,-0.72 0.71,-1.24 0.18,-0.53 0.26,-1.16 0.26,-1.9 0,-1.03 -0.17,-1.82 -0.5,-2.37 -0.34,-0.56 -0.75,-0.93 -1.23,-1.11 -0.35,-0.14 -0.91,-0.21 -1.68,-0.21l-2.06 0 0 7.52z"/>
   <path id="_4_3" class="fil0" d="M128.88 113.67l0 -1.37 1.38 0 0 1.37 -1.38 0zm0 5.74l0 -1.37 1.38 0 0 1.37 -1.38 0z"/>
   <polygon id="_5_4" class="fil0" points="136.55,119.41 136.55,109.59 137.85,109.59 137.85,119.41 "/>
   <path id="_6_5" class="fil0" d="M140.14 119.41l0 -9.82 3.38 0c0.77,0 1.35,0.05 1.75,0.14 0.57,0.13 1.04,0.37 1.44,0.71 0.52,0.44 0.91,0.99 1.16,1.67 0.26,0.69 0.39,1.47 0.39,2.34 0,0.75 -0.09,1.41 -0.26,1.98 -0.17,0.58 -0.4,1.06 -0.67,1.44 -0.27,0.37 -0.57,0.67 -0.9,0.88 -0.32,0.22 -0.71,0.39 -1.17,0.5 -0.46,0.11 -0.98,0.16 -1.58,0.16l-3.54 0zm1.3 -1.15l2.1 0c0.64,0 1.15,-0.06 1.52,-0.18 0.37,-0.12 0.66,-0.29 0.88,-0.51 0.31,-0.31 0.55,-0.72 0.72,-1.24 0.17,-0.53 0.26,-1.16 0.26,-1.9 0,-1.03 -0.17,-1.82 -0.51,-2.37 -0.34,-0.56 -0.74,-0.93 -1.23,-1.11 -0.34,-0.14 -0.91,-0.21 -1.68,-0.21l-2.06 0 0 7.52z"/>
   <path id="_7_6" class="fil0" d="M155.89 118.26l0 1.15 -6.5 0c-0.01,-0.29 0.04,-0.56 0.14,-0.83 0.17,-0.45 0.43,-0.88 0.8,-1.31 0.37,-0.43 0.9,-0.92 1.58,-1.48 1.06,-0.88 1.79,-1.57 2.16,-2.08 0.38,-0.51 0.57,-1 0.57,-1.46 0,-0.47 -0.17,-0.88 -0.51,-1.21 -0.35,-0.32 -0.79,-0.49 -1.35,-0.49 -0.58,0 -1.04,0.18 -1.39,0.52 -0.35,0.35 -0.53,0.83 -0.53,1.44l-1.24 -0.12c0.09,-0.92 0.41,-1.63 0.96,-2.11 0.55,-0.49 1.3,-0.73 2.23,-0.73 0.94,0 1.69,0.26 2.24,0.79 0.55,0.52 0.83,1.17 0.83,1.94 0,0.39 -0.08,0.78 -0.25,1.16 -0.16,0.38 -0.42,0.78 -0.8,1.2 -0.37,0.42 -0.99,1 -1.85,1.73 -0.73,0.61 -1.2,1.02 -1.4,1.24 -0.21,0.22 -0.38,0.43 -0.51,0.65l4.82 0z"/>
   <path id="_8_7" class="fil0" d="M157.2 114.57c0,-1.16 0.11,-2.1 0.35,-2.81 0.24,-0.71 0.6,-1.26 1.07,-1.64 0.47,-0.38 1.06,-0.57 1.77,-0.57 0.53,0 0.99,0.11 1.39,0.32 0.4,0.21 0.73,0.52 0.98,0.92 0.26,0.4 0.46,0.88 0.61,1.46 0.15,0.57 0.22,1.35 0.22,2.32 0,1.15 -0.12,2.08 -0.36,2.79 -0.23,0.71 -0.59,1.26 -1.06,1.64 -0.47,0.39 -1.06,0.58 -1.78,0.58 -0.94,0 -1.69,-0.34 -2.22,-1.01 -0.65,-0.82 -0.97,-2.16 -0.97,-4zm1.23 0c0,1.62 0.19,2.69 0.57,3.22 0.37,0.54 0.84,0.8 1.39,0.8 0.56,0 1.02,-0.27 1.4,-0.8 0.38,-0.53 0.56,-1.61 0.56,-3.22 0,-1.61 -0.18,-2.69 -0.56,-3.22 -0.38,-0.53 -0.85,-0.8 -1.41,-0.8 -0.55,0 -1,0.24 -1.33,0.71 -0.41,0.59 -0.62,1.7 -0.62,3.31z"/>
   <path id="_9" class="fil0" d="M171.15 118.26l0 1.15 -6.5 0c-0.01,-0.29 0.04,-0.56 0.14,-0.83 0.17,-0.45 0.43,-0.88 0.8,-1.31 0.37,-0.43 0.9,-0.92 1.58,-1.48 1.06,-0.88 1.79,-1.57 2.16,-2.08 0.38,-0.51 0.57,-1 0.57,-1.46 0,-0.47 -0.17,-0.88 -0.51,-1.21 -0.35,-0.32 -0.79,-0.49 -1.35,-0.49 -0.58,0 -1.04,0.18 -1.39,0.52 -0.35,0.35 -0.53,0.83 -0.53,1.44l-1.24 -0.12c0.09,-0.92 0.41,-1.63 0.96,-2.11 0.55,-0.49 1.3,-0.73 2.23,-0.73 0.94,0 1.69,0.26 2.24,0.79 0.55,0.52 0.83,1.17 0.83,1.94 0,0.39 -0.08,0.78 -0.25,1.16 -0.16,0.38 -0.42,0.78 -0.8,1.2 -0.37,0.42 -0.99,1 -1.86,1.73 -0.72,0.61 -1.19,1.02 -1.39,1.24 -0.21,0.22 -0.38,0.43 -0.51,0.65l4.82 0z"/>
   <path id="_10" class="fil0" d="M178.78 118.26l0 1.15 -6.5 0c-0.01,-0.29 0.04,-0.56 0.14,-0.83 0.17,-0.45 0.43,-0.88 0.8,-1.31 0.37,-0.43 0.9,-0.92 1.58,-1.48 1.06,-0.88 1.79,-1.57 2.16,-2.08 0.38,-0.51 0.57,-1 0.57,-1.46 0,-0.47 -0.17,-0.88 -0.51,-1.21 -0.35,-0.32 -0.79,-0.49 -1.35,-0.49 -0.58,0 -1.04,0.18 -1.39,0.52 -0.35,0.35 -0.53,0.83 -0.53,1.44l-1.24 -0.12c0.09,-0.92 0.41,-1.63 0.96,-2.11 0.55,-0.49 1.3,-0.73 2.23,-0.73 0.94,0 1.69,0.26 2.24,0.79 0.55,0.52 0.83,1.17 0.83,1.94 0,0.39 -0.08,0.78 -0.25,1.16 -0.16,0.38 -0.42,0.78 -0.8,1.2 -0.37,0.42 -0.99,1 -1.86,1.73 -0.72,0.61 -1.19,1.02 -1.39,1.24 -0.21,0.22 -0.38,0.43 -0.51,0.65l4.82 0z"/>
   <path id="_11" class="fil0" d="M186.41 118.26l0 1.15 -6.5 0c-0.01,-0.29 0.04,-0.56 0.14,-0.83 0.17,-0.45 0.43,-0.88 0.8,-1.31 0.37,-0.43 0.9,-0.92 1.58,-1.48 1.06,-0.88 1.79,-1.57 2.16,-2.08 0.38,-0.51 0.57,-1 0.57,-1.46 0,-0.47 -0.17,-0.88 -0.51,-1.21 -0.35,-0.32 -0.79,-0.49 -1.35,-0.49 -0.58,0 -1.04,0.18 -1.39,0.52 -0.35,0.35 -0.53,0.83 -0.53,1.44l-1.24 -0.12c0.09,-0.92 0.41,-1.63 0.96,-2.11 0.55,-0.49 1.3,-0.73 2.23,-0.73 0.94,0 1.69,0.26 2.24,0.79 0.55,0.52 0.83,1.17 0.83,1.94 0,0.39 -0.08,0.78 -0.25,1.16 -0.16,0.38 -0.42,0.78 -0.8,1.2 -0.37,0.42 -0.99,1 -1.86,1.73 -0.72,0.61 -1.19,1.02 -1.39,1.24 -0.21,0.22 -0.38,0.43 -0.51,0.65l4.82 0z"/>
   <path id="_12" class="fil0" d="M192.24 119.41l-1.2 0 0 -7.68c-0.29,0.28 -0.68,0.55 -1.15,0.83 -0.47,0.28 -0.89,0.49 -1.27,0.62l0 -1.16c0.68,-0.32 1.27,-0.7 1.77,-1.16 0.51,-0.45 0.87,-0.88 1.08,-1.31l0.77 0 0 9.86z"/>
   <path id="_13" class="fil0" d="M195.52 117.14l1.16 -0.1c0.1,0.55 0.28,0.94 0.56,1.18 0.28,0.25 0.63,0.37 1.06,0.37 0.37,0 0.7,-0.08 0.98,-0.25 0.28,-0.17 0.51,-0.4 0.69,-0.69 0.17,-0.28 0.32,-0.66 0.44,-1.15 0.12,-0.48 0.18,-0.97 0.18,-1.47 0,-0.05 0,-0.14 0,-0.24 -0.24,0.38 -0.57,0.69 -0.99,0.93 -0.42,0.24 -0.87,0.36 -1.35,0.36 -0.81,0 -1.5,-0.29 -2.06,-0.88 -0.56,-0.59 -0.84,-1.37 -0.84,-2.33 0,-1 0.29,-1.8 0.88,-2.41 0.58,-0.6 1.32,-0.91 2.2,-0.91 0.64,0 1.22,0.17 1.75,0.52 0.53,0.34 0.93,0.83 1.2,1.47 0.28,0.63 0.41,1.55 0.41,2.76 0,1.26 -0.13,2.25 -0.4,3 -0.28,0.74 -0.68,1.31 -1.22,1.7 -0.54,0.39 -1.17,0.58 -1.89,0.58 -0.77,0 -1.39,-0.21 -1.88,-0.64 -0.48,-0.43 -0.78,-1.03 -0.88,-1.8zm4.93 -4.33c0,-0.7 -0.18,-1.24 -0.55,-1.65 -0.36,-0.4 -0.81,-0.61 -1.33,-0.61 -0.54,0 -1,0.22 -1.4,0.66 -0.39,0.43 -0.59,1 -0.59,1.7 0,0.62 0.19,1.13 0.56,1.52 0.38,0.39 0.84,0.58 1.4,0.58 0.56,0 1.01,-0.19 1.37,-0.58 0.36,-0.39 0.54,-0.93 0.54,-1.62z"/>
   <path id="_14" class="fil0" d="M203.04 110.87l0 -1.15 6.36 0 0 0.93c-0.63,0.66 -1.25,1.55 -1.86,2.65 -0.62,1.11 -1.09,2.24 -1.43,3.41 -0.24,0.82 -0.39,1.73 -0.46,2.7l-1.23 0c0.01,-0.77 0.16,-1.7 0.45,-2.8 0.29,-1.1 0.71,-2.15 1.25,-3.17 0.54,-1.02 1.12,-1.87 1.73,-2.57l-4.81 0z"/>
   <path id="_15" class="fil0" d="M210.61 114.57c0,-1.16 0.11,-2.1 0.35,-2.81 0.24,-0.71 0.6,-1.26 1.07,-1.64 0.47,-0.38 1.06,-0.57 1.77,-0.57 0.53,0 0.99,0.11 1.39,0.32 0.4,0.21 0.73,0.52 0.98,0.92 0.26,0.4 0.46,0.88 0.61,1.46 0.15,0.57 0.22,1.35 0.22,2.32 0,1.15 -0.12,2.08 -0.36,2.79 -0.23,0.71 -0.59,1.26 -1.06,1.64 -0.47,0.39 -1.06,0.58 -1.78,0.58 -0.94,0 -1.69,-0.34 -2.22,-1.01 -0.65,-0.82 -0.97,-2.16 -0.97,-4zm1.23 0c0,1.62 0.19,2.69 0.56,3.22 0.38,0.54 0.85,0.8 1.4,0.8 0.56,0 1.02,-0.27 1.4,-0.8 0.38,-0.53 0.56,-1.61 0.56,-3.22 0,-1.61 -0.18,-2.69 -0.56,-3.22 -0.38,-0.53 -0.85,-0.8 -1.41,-0.8 -0.55,0 -1,0.24 -1.33,0.71 -0.41,0.59 -0.62,1.7 -0.62,3.31z"/>
   <path id="_16" class="fil0" d="M222.76 119.41l-1.2 0 0 -7.68c-0.29,0.28 -0.68,0.55 -1.15,0.83 -0.47,0.28 -0.89,0.49 -1.27,0.62l0 -1.16c0.68,-0.32 1.27,-0.7 1.77,-1.16 0.51,-0.45 0.87,-0.88 1.08,-1.31l0.77 0 0 9.86z"/>
   <path id="_17" class="fil0" d="M229.72 119.41l0 -2.34 -4.27 0 0 -1.11 4.49 -6.37 0.99 0 0 6.37 1.33 0 0 1.11 -1.33 0 0 2.34 -1.21 0zm0 -3.45l0 -4.42 -3.08 4.42 3.08 0z"/>
   <path id="_18" class="fil0" d="M235.36 114.09c-0.51,-0.18 -0.88,-0.45 -1.12,-0.78 -0.24,-0.35 -0.36,-0.75 -0.36,-1.23 0,-0.71 0.26,-1.31 0.77,-1.8 0.51,-0.48 1.19,-0.73 2.05,-0.73 0.85,0 1.54,0.25 2.06,0.75 0.52,0.5 0.79,1.1 0.79,1.82 0,0.45 -0.12,0.85 -0.36,1.19 -0.24,0.34 -0.6,0.6 -1.09,0.78 0.6,0.2 1.06,0.51 1.37,0.95 0.32,0.44 0.47,0.96 0.47,1.57 0,0.84 -0.29,1.54 -0.89,2.11 -0.59,0.57 -1.37,0.86 -2.34,0.86 -0.96,0 -1.74,-0.29 -2.34,-0.86 -0.59,-0.57 -0.89,-1.29 -0.89,-2.15 0,-0.63 0.16,-1.17 0.49,-1.6 0.32,-0.43 0.79,-0.72 1.39,-0.88zm-0.25 -2.05c0,0.47 0.15,0.85 0.45,1.14 0.3,0.3 0.68,0.45 1.17,0.45 0.47,0 0.84,-0.15 1.14,-0.44 0.29,-0.3 0.44,-0.66 0.44,-1.08 0,-0.44 -0.15,-0.82 -0.45,-1.12 -0.31,-0.3 -0.69,-0.45 -1.15,-0.45 -0.46,0 -0.84,0.15 -1.14,0.44 -0.3,0.3 -0.46,0.65 -0.46,1.06zm-0.39 4.54c0,0.35 0.08,0.68 0.24,1 0.16,0.32 0.4,0.57 0.72,0.75 0.33,0.17 0.67,0.26 1.04,0.26 0.58,0 1.06,-0.18 1.43,-0.55 0.37,-0.37 0.56,-0.85 0.56,-1.42 0,-0.58 -0.19,-1.06 -0.57,-1.44 -0.39,-0.38 -0.87,-0.57 -1.46,-0.57 -0.57,0 -1.04,0.19 -1.41,0.57 -0.37,0.37 -0.55,0.84 -0.55,1.4z"/>
   <path id="_19" class="fil0" d="M245.65 119.41l-1.2 0 0 -7.68c-0.29,0.28 -0.68,0.55 -1.15,0.83 -0.47,0.28 -0.89,0.49 -1.27,0.62l0 -1.16c0.68,-0.32 1.27,-0.7 1.77,-1.16 0.51,-0.45 0.87,-0.88 1.08,-1.31l0.77 0 0 9.86z"/>
   <path id="_20" class="fil0" d="M248.16 119.41l3.77 -9.82 1.43 0 4 9.82 -1.48 0 -1.14 -2.97 -4.14 0 -1.06 2.97 -1.38 0zm2.82 -4.03l3.35 0 -1.02 -2.72c-0.31,-0.83 -0.54,-1.51 -0.71,-2.05 -0.13,0.64 -0.31,1.27 -0.54,1.89l-1.08 2.88z"/>
   <path id="_21" class="fil0" d="M257.91 114.57c0,-1.16 0.11,-2.1 0.35,-2.81 0.24,-0.71 0.6,-1.26 1.07,-1.64 0.47,-0.38 1.06,-0.57 1.77,-0.57 0.53,0 0.99,0.11 1.39,0.32 0.4,0.21 0.73,0.52 0.98,0.92 0.26,0.4 0.46,0.88 0.61,1.46 0.14,0.57 0.22,1.35 0.22,2.32 0,1.15 -0.12,2.08 -0.36,2.79 -0.23,0.71 -0.59,1.26 -1.06,1.64 -0.47,0.39 -1.06,0.58 -1.78,0.58 -0.94,0 -1.69,-0.34 -2.22,-1.01 -0.65,-0.82 -0.97,-2.16 -0.97,-4zm1.23 0c0,1.62 0.19,2.69 0.56,3.22 0.38,0.54 0.85,0.8 1.4,0.8 0.56,0 1.02,-0.27 1.4,-0.8 0.38,-0.53 0.56,-1.61 0.56,-3.22 0,-1.61 -0.18,-2.69 -0.56,-3.22 -0.38,-0.53 -0.85,-0.8 -1.41,-0.8 -0.55,0 -1,0.24 -1.33,0.71 -0.41,0.59 -0.62,1.7 -0.62,3.31z"/>
   <path id="_22" class="fil0" d="M270.06 119.41l-1.2 0 0 -7.68c-0.29,0.28 -0.68,0.55 -1.15,0.83 -0.47,0.28 -0.89,0.49 -1.27,0.62l0 -1.16c0.68,-0.32 1.27,-0.7 1.77,-1.16 0.51,-0.45 0.87,-0.88 1.08,-1.31l0.77 0 0 9.86z"/>
  </g>
 </g>
</svg>
