<?xml version="1.0" encoding="UTF-8"?>
<!DOCTYPE svg PUBLIC "-//W3C//DTD SVG 1.1//EN" "http://www.w3.org/Graphics/SVG/1.1/DTD/svg11.dtd">
<!-- Creator: CorelDRAW -->
<svg xmlns="http://www.w3.org/2000/svg" xml:space="preserve" width="32px" height="32px" version="1.1" style="shape-rendering:geometricPrecision; text-rendering:geometricPrecision; image-rendering:optimizeQuality; fill-rule:evenodd; clip-rule:evenodd"
viewBox="0 0 32 32"
 xmlns:xlink="http://www.w3.org/1999/xlink"
 xmlns:xodm="http://www.corel.com/coreldraw/odm/2003">
 <defs>
  <style type="text/css">
   :root { color: #000000; }
    @media (prefers-color-scheme: dark) {
      :root { color: #ffffff; }
    }
    .fil0 { fill: currentColor; }
  </style>
 </defs>
 <g id="Layer_x0020_1">
  <metadata id="CorelCorpID_0Corel-Layer"/>
  <g id="_1610060220352">
   <path class="fil0" d="M16.07 29.6c-3.8,0 -7.12,-1.22 -9.8,-3.93 -2.6,-2.65 -3.79,-5.88 -3.87,-9.54l0 -13.73 4.9 5.54 0 8.19c0,2.4 0.73,4.52 2.47,6.19 1.75,1.68 3.9,2.38 6.3,2.38l4.22 0c1.45,1.37 2.69,2.27 5.64,2.09 0.28,-2.78 0.01,-6.76 -4.79,-8.69 3.33,3.54 1.72,4.48 4.11,7.91 -5.45,-1.14 -4.44,-5.86 -10.74,-10.36 10.18,-2.36 15.09,2.56 15.09,10.7l0 3.25c-4.74,0 -8.79,0 -13.53,0z"/>
   <path class="fil0" d="M2.4 2.4l13.53 0c3.73,0 7.13,1.05 9.85,3.66 2.71,2.59 3.82,5.9 3.82,9.62l0 2.78c-0.44,-0.74 -0.96,-1.42 -1.58,-2.05 -1.03,-1.04 -2.2,-1.79 -3.46,-2.3 -0.31,-1.64 -1.04,-3.11 -2.29,-4.36 -1.74,-1.72 -3.91,-2.45 -6.34,-2.45l-7.99 0 -5.54 -4.9z"/>
  </g>
 </g>
</svg>
